<?xml version="1.0" encoding="UTF-8"?><!DOCTYPE svg PUBLIC "-//W3C//DTD SVG 1.1//EN" "http://www.w3.org/Graphics/SVG/1.1/DTD/svg11.dtd"><svg xmlns="http://www.w3.org/2000/svg" version="1.1" x="0px" y="0px" width="100px" height="100px" viewBox="0 0 512 512" xml:space="preserve"><g id="social__x2C__media__x2C__social_media__x2C___html_5__x2C_"><path fill="#FF651E" d="M470.404 368.68l25.27 1.735-20.196 1.197 5.531 1.69-17.26.621 34.315 3.627-16.021.474-16.266.022 23.391 3.887 3.53 2.101-16.302-.489-12.58-.381 21.797 4.92-23.176-2.479 21.508 5.466 4.055 2.491-19.767-2.662-6.683-.149 17.086 5.631-1.515 1.206 12.884 5.212-.387 1.672-13.578-2.388-7.507-.819 12.309 5.709.472 1.899-21.04-6.075 15.237 7.339 15.044 7.759-29.992-10.621-7.202-1.638 6.506 4.315-5.832-1.22 19.39 10.855-1.684.941.95 2.274-18.849-8.306.17 1.605-.945 1.006 22.618 14.92.916 2.561-25.81-14.189-4.731-1.485.769 2.033 28.143 20.933-6.402-2.369-17.656-10.802-.731 1.193 9.751 9.292-10.552-6.351 18.085 16.583-4.048-1.119-16.809-12.263-4.145-1.788 21.169 21.117.928 3.275-24.734-21.303 7.735 9.561-9.211-7.179-.276 1.684 3.683 5.962 7.04 9.951-9.851-8.688 6.926 10.301-18.222-19.246 4.562 7.596-4.282-3.182 18.979 26.825-8.213-8.031-12.828-14.923 8.153 13.873-12.261-15.138 8.987 15.842 8.513 16.003-12.328-16.29 5.521 11.97 2.74 7.945-15.796-23.979 10.354 21.604-15.909-26.01 4.082 10.748-7.651-11.999 11.301 26.292-13.097-24.047-1.584-.375 2.031 7.91 2.877 10.479-6.96-13.173 3.849 13.676 2.876 12.162-1.868-.158-2.839-3.116-1.255 1.443-5.909-13.506-.818 2.346-3.634-7.512-.107 4.922 3.93 21.583-1.063 3.085-4.704-13.101-2.02-1.975.195 9.195-1.621.414-3.835-13.039-3.538-13.612.292 11.796-3.15-13.798-.399 8.085-.151 12.983-1.904-4.338-1.716-3.357-.71 13.712-1.939-7.803-1.465 2.022-1.363 12.861-1.731-26.412-1.527 27.848-1.528-29.141-1.527 3.533-1.527-.951-1.528-4.619-1.527 4.701-1.527 6.923-1.528-13.796-1.528 37.73-1.528-9.561-1.529-13.866-1.528 4.48-1.529-6.821-1.531 13.367-1.529-7.25-1.528-15.274-1.529 8.788-1.529-1.836-1.528 13.925-1.528-18.01-1.528-5.178-1.528 12.186-1.527-2.101-1.529 7.993-1.527 15.128-1.528-14.104-1.529-7.039-1.528-11.695-1.528 28.434-1.529 5.514-1.528-25.139-1.529-.802-1.53-4.398-1.528 12.829-1.528 17.641-1.528-20.814-1.526 7.818-1.526-12.782-1.526 22.911-1.525-9.734-1.524 10.692-1.525 4.847-1.524-17.429-1.525-16.178-1.524 19.338-1.524 10.053-1.524-10.037-1.524-13.761-1.525-.639-1.525 13.916-1.525 14.455-1.526-20.811-1.525-11.207-1.528-4.97-1.527 14.472-1.528-10.378-1.529-4.04-1.53 17.445-1.531 3.958-1.53-15.569-1.529 8.29-1.529.802-1.527 7.287-1.528 4.792-1.527 7.073-1.527-22.331-1.527-2.413-1.526 15.233-1.527 3.119-1.526-6.965-1.527-6.464-1.528 22.346-1.527-11.592-1.529 1.026-1.529 9.561-1.53-21.794-1.532 18.627-1.531-6.222-1.53-5.497-1.529-16.514-1.529 1.675-1.529-2.478-1.528 13.693-1.528-14.754-1.528 7.095-1.529 10.843-1.529 9.494-1.529 4.404-1.531-8.551-1.532.119-1.532-4.745-1.53 7.919-1.53-5.381-1.53-12.827-1.529 17.721-1.53-19.363-1.529 22.057-1.531-15.906-1.531-17.136-1.532 31.837-1.532-12.034-1.531 10.238-1.53.172-1.53-28.542-1.53 14.436-1.532-13.565-1.532 20.351-1.532-8.974-1.532 21.476-1.531-18.624-1.53 21.49-1.532-35.756-1.533 23.033-1.532 5.192-1.526-1.365-1.529 2.306-1.531-16.09-1.533-14.796-1.531 11.835-1.529 18.856-1.529-27.345-1.528-1.123-1.53 27.597-1.532-20.333-1.534 25.349-1.531-1.039-1.531-31.215-1.531 32.004-1.534-24.64-1.533 25.816-1.533-12.036-1.533-11.357-1.535 24.044-1.533-18.093-1.535 19.186-1.534-38.37-1.536 27.332-1.531 3.534-1.532-16.82-1.536 20.68-1.534-6.683-1.536-15.314-1.537 21.035-1.536-8.713-1.539 5.738-1.541 8.139-1.542-28.732-1.793 27.51-1.45-11.614-1.569-1.348-.811-14.695-1.034-5.567-1.788 5.51-.808-6.411-3.121 16.491-3.427 15.287-.859-6.76.492-14.574-1.15-2.11-4.792 18.624 2.701-23.101-3.702 11.029-2.03 2.001-1.615-.056 1.365-11.992-2.953 5.577-1.978 1.471.815-8.208-7.465 19.314 7.707-29.252-1.651.812-8.119 18.955.39-5.628-5.221 9.296-.895-2.224-2.442 1.579 3.61-12.487-6.536 10.856 3.321-11.034-7.049 11.085 5.303-14.338-4.508 5.479 3.832-10.484-5.064 6.205-7.004 9.167-1.201-1.278 12.397-23.609-15.231 21.794-5.066 4.746 14.525-24.998-11.476 14.29.169-3.055 3.908-8.082-4.168 3.119 4.507-8.376-11.331 12.044-8.597 7.964 14.023-19.539 2.264-4.888-11.809 11.258-3.18 1.096.385-2.837 3.719-6.224-14.495 12.535 12.478-14.836 12.79-14.414-10.565 8.161-8.611 5.882 14.349-14.833-15.78 11.886-2.999.464 9.821-10.081 5.212-5.93-1.181-.758-13.948 8.81-9.39 4.933-5.957 2.16 10.292-9.225-3.631.526.388-2.191 9.099-7.617-13.726 6.679 1.804-2.981 19.173-12.843.891-1.975-22.502 10.65-11.507 4.177 15.469-9.771-1.957-.748 17.808-10.049-17.983 6.736 14.293-7.885 1.551-2.074-32.572 11.754L50.667 404.5l-.147-1.392-2.415-.574-12.038 2.639 17.374-7.274-22.22 5.535-10.048 1.294 13.247-5.52 18.682-6.55-8.637.849-5.079-.232-5.103-.365 2.892-2.157 10.648-3.563-20.625 2.335.721-1.752 12.373-3.473 7.476-2.457-35.763 3.053 27.626-4.825 3.175-1.73-3.27-1.118 6.988-1.9-4.939-1.066-21.486-.53 4.053-1.788.763-1.642 19.981-1.617-31.344-1.527 1.618-1.526-3.664-1.525 16.93-1.527-4.731-1.526 19.374-1.527-4.171-1.526-16.746-1.526 7.815-1.528-2.765-1.526-1.141-1.527 18.1-1.529-23.586-1.527 22.109-1.529 8.052-1.528-.806-1.528-33.658-1.527-4.526-1.528 18.701-1.527 2.403-1.526-20.929-1.528 16.215-1.526 17.466-1.527-10.916-1.527-15.13-1.526 3.763-1.527 15.127-1.527 6.277-1.527-28.037-1.527 6.554-1.526 18.393-1.527-15.32-1.529-2.744-1.528.798-1.527 5.79-1.527 19.458-1.526-16.39-1.525-15.437-1.526 12.594-1.524 18.854-1.524-31.3-1.524 12.172-1.523-10.159-1.524 5.611-1.522-9.571-1.524 13.897-1.522-17.606-1.524 36.215-1.523-6.116-1.524 5.994-1.523-28.936-1.523 22.947-1.526-15.116-1.524 16.029-1.526 3.813-1.526-16.262-1.527 15.076-1.529-31.479-1.528.995-1.53 4.856-1.529 23.593-1.528-24.101-1.527 19.686-1.528L40.869 271l.274-1.526-.223-1.526 2.05-1.525.529-1.526-24.542-1.525 7.528-1.525-7.211-1.527-7.272-1.526 21.323-1.526-10.817-1.528 10.646-1.529-4.419-1.529 9.797-1.53-.361-1.53-1.033-1.529-24.419-1.528 32.038-1.528-8.822-1.527.331-1.527-7.321-1.527-15.542-1.527 1.292-1.528 20.251-1.527 12.625-1.529-13.667-1.53-19.157-1.53 4.908-1.531-7.834-1.529 13.95-1.529-12.497-1.529-2.006-1.528 2.018-1.528 16.346-1.529-10.466-1.529 21.561-1.53-7.319-1.532 17.572-1.53-35.133-1.53 25.988-1.529 8.041-1.529-9.44-1.529-19.502-1.531 13.968-1.53 11.8-1.532-32.476-1.53 17.191-1.53 3.589-1.53 11.711-1.53L18.65 196.1l24.503-1.532-24.552-1.525 6.635-1.527-2.949-1.53 11.109-1.532-11.149-1.53 1.405-1.528 16.023-1.527-24.544-1.528 12.066-1.528 14.49-1.531 8.55-1.533-38.286-1.53 11.637-1.53 3.495-1.53-10.898-1.533 6.044-1.532 5.768-1.531-6.545-1.532 21.709-1.534-21.817-1.532 26.757-1.534-27.043-1.533 6.299-1.535 3.341-1.53 17.506-1.53-36.947-1.535 21.622-1.533-10.6-1.535 7.084-1.536-15.988-1.535 9.71-1.538 24.442-1.54-9.642-1.54 4.87-1.378-13.048-1.728 9.621-1.169-23.216-2.676.849-1.684 6.638-1.199 12.176-.494-7.15-2.262 3.279-1.186 17.93.891-15.754-3.669-15.616-4.096 27.589 3.16-31.984-7.526 10.424.31 1.439-1.385 5.611-.364 4.858-.401 13.984 2.153-24.047-8.102 1.071-1.414 22.85 5.352.345-1.289-14.773-6.433 3.464-.415-4.082-3.125 4.4.013 5.446.557-20.75-10.269 6.647.977-4.352-3.816 4.357.116 11.875 3.877-14.224-8.853 5.944 1.11-2.899-3.465 23.832 11.256 5.22 1.407-3.254-3.435-14.768-10.603 12.994 6.274-1.338-2.551-12.206-9.894 20.059 11.78-14.224-11.719L68.47 89.602 43.799 69.529l.281-1.933-2.067-3.817 7.371 3.733 4.238 1.391-3.287-4.943 8.027 4.873-12.415-13.399 28.619 24.31-12.812-14.099 8.788 6.502-15.89-18.116-2.774-5.393L66.125 61.27l1.002-1.197 6.735 5.28-9.955-13.772 1.488-.816 13.438 13.882 1.415-.464-14.826-21.568 3.379 1.613 12.397 14.168 3.788 2.857-1.522-4.664 1.163-.868-4.512-9.644 5.523 5.807-9.907-19.142 13.104 18.714L78.75 30.852l10.665 15.593 6.468 8.843-9.818-21.932 9.529 15.225-7.911-19.696 3.693 3.789-.44-5.075 2.374 1.089 4.029 5.184-2.849-11.471 9.355 19.266-2.096-9.974.605-3.193 7.204 16.017-6.659-25.189 9.714 25.36 3.226 5.952 2.276 3.223-1.751-11.642-3.33-19.264 1.148-2.572 4.476 12.221 5.829 20.513-5.593-35.833 5.547 21.128 2.471 6.011-2.791-27.899 6.423 34.182-1.81-25.476 4.498 26.323-.527-19.065 2.421 10.935 1.019-5.44 1.135-5.932 2.077 13.385.505-31.497 1.889 8.606 1.659-1.762 1.528-8.034 1.527 26.923 1.527 6.917 1.527-30.471 1.527 22.699 1.528-10.776 1.528-3.146 1.527 16.853 1.528-18.823 1.529-1.749 1.528 17.244 1.529-5.103 1.529 1.845 1.529 16.19 1.53-.673 1.529-12.996 1.528-23.257 1.529 11.984 1.528 19.388 1.528-11.696 1.528 8.299 1.528-18.506 1.528 7.917 1.527-5.811 1.528 1.107 1.528 5.505 1.528-19.67 1.529 19.072 1.529 17.836 1.527-9.498 1.529-25.739 1.53 10.473 1.529 24.154 1.528-22.69 1.528-1.599 1.527 23.413 1.527-32.265 1.526 22.501 1.525-22.09 1.526 20.128 1.525-23.666 1.524 17.637 1.525 1.399 1.524-19.932 1.524 19.903 1.524 11.328 1.524-25.553 1.525 5.259 1.524 21.796 1.525-.92 1.525-15.277 1.526-14.084 1.526 4.003 1.526 25.997 1.528 3.618 1.528-8.571 1.529 11.493 1.53-32.769 1.531 29.495 1.53-8.392 1.529.572 1.529-8.678 1.528 17.451 1.527-6.718 1.527-3.666 1.527-8.715 1.527 20.683 1.526-2.814 1.526-15.844 1.527-11.453 1.527 8.385 1.527 20.171 1.528.281 1.529-5.318 1.53-14.772 1.53-12.284 1.531 6.429 1.532 15.964 1.529-2.605 1.529-18.227 1.53 13.499 1.528 5.724 1.528 10.171 1.528-31.095 1.529-.683 1.528 9.536 1.529 2.116 1.53 13.736 1.531 5.458 1.531-11.8 1.531-19.228 1.532 22.735 1.529-1.876 1.53 3.535 1.53-15.033 1.529 23.28 1.529-1.921 1.53-27.989 1.532 18.644 1.533-16.928 1.531 24.662 1.531-8.846 1.531-18.72 1.53 14.833 1.53-1.157 1.531 3.801 1.532-20.136 1.533 11.316 1.531-9.634 1.53 5.138 1.532 7.423 1.531-4.347 1.533-6.073 1.532-2.427 1.527 13.118 1.528-8.002 1.53 19.432 1.535-21.592 1.53 28.915 1.529-18.535 1.528 1.321 1.53 5.322 1.529-22.2 1.532 28.427 1.534-8.068 1.532-15.318 1.53 28.571 1.531-17.933 1.534-16.042 1.534 27.652 1.532 2.168 1.533-1.699 1.535-13.06 1.533 19.113 1.536-25.393 1.534 6.966 1.535-17.163 1.531 4.407 1.531 21.443 1.536 9.344 1.535-14.341 1.536-1.108 1.538 8.788 1.535 11 1.539-9.85 1.541-14.705 1.542 15.942 1.453-5.072 1.599-5.419 2.179-16.04.956 14.585.202 20.015 4.308-37.381 1.727.668-1.371 29.221 5.06-29.958-2.059 28.416 4.761-22.248.887 5.217 2.29-3.418-.885 13.61 3.236-8.154.272 6.335 4.921-14.162-6.459 33.101 4.782-13.012-1.63 11.347.025 4.605 4.732-11.015 1.077 1.3-2.223 10.948 6.119-13.459 4.418-7.701-6.542 21.328 4.643-8.111 2.495-2.314 11.605-23.056-8.453 23.11 7.254-12.044.452 2.869 1.52.592.391 2.776 4.037-4.145-8.034 17.933 2.704-1.893.898 1.319-3.254 8.115 15.782-22.676-8.952 16.955 7.333-8.424 3.541-2.36 2.833-1.176-5.347 10.199 12.402-14.049-4.956 9.342-5.348 9.384 5.822-4.803-5.983 9.621 14.397-14.551-11.991 16.147 4.157-2.438-.765 3.015 4.56-2.644 9.807-7.767-20.929 23.047 11.499-9.278-4.513 6.243-4.614 6.048 13.382-10.147-11.145 11.579 4.078-1.747-2.368 3.658 19.956-14.186-10.798 10.363 9.494-5.352 4.41-1.284 2.165.45 2.779.072-11.292 9.548-5.624 5.393 17.356-9.303 7.596-2.71-23.617 15.968-1.211 2.256 29.402-14.82.233 1.892-16.879 10.758 12.027-4.384 3.989-.074-15.541 9.159 7.668-1.856 8.241-1.872-9.141 5.656 15.157-4.458-3.213 3.135-27.305 11.954 5.967-.763-2.402 2.256 20.867-5.379-20.373 8.01 1.059 1.065 14.492-2.669 17.303-2.99-33.434 10.201 32.572-6.366-7.392 3.44-3.856 2.472-8.151 3.179-4.817 2.347 11.439-.47-10.69 3.175 28.554-2.492-33.186 5.866-4.208 1.797 6.112.699 7.952.713 24.819-.222-17.509 2.749 15.508.935-32.086 2.619-2.702 1.386 24.796 1.281 12.611 1.526-22.24 1.526 15.439 1.526-4.981 1.526-14.806 1.527-10.279 1.526 5.695 1.526 4.535 1.527-7.805 1.527 15.938 1.527 10.599 1.527-3.184 1.528 11.31 1.528-14.429 1.528-3.91 1.529-12.828 1.527 9.783 1.528-3.718 1.527-.325 1.527 24.746 1.527-26.317 1.527-4.551 1.526-5.448 1.527 31.715 1.527-9.387 1.527 6.101 1.526 4.66 1.528-5.32 1.527.865 1.527-27.489 1.527 5.679 1.528 23.248 1.528-7.991 1.528-19.503 1.528 26.973 1.526-9.234 1.526 11.927 1.526-32.603 1.525 29.442 1.524-7.696 1.524 15.264 1.524-3.257 1.523-25.654 1.523 14.774 1.524-1.654 1.523 12.606 1.523-21.954 1.523 14.253 1.523-2.493 1.523-11.351 1.524 7.694 1.524-4.503 1.524 5.875 1.525-13.144 1.526 12.836 1.526 8.647 1.527-16.416 1.528.944 1.529-12.007 1.53 18.107 1.528 16.424 1.529-20.522 1.527 21.141 1.527-1.378 1.526-2.069 1.526-16.345 1.526-16.852 1.525 13.543 1.525 9.921 1.526-5.213 1.525-6.843 1.526-9.737 1.526 16.448 1.527 6.474 1.528-5.125 1.528-12.124 1.529 6.205 1.53-3.55 1.53 18.836 1.53-8.021 1.528-1.628 1.527 13.136 1.528-14.428 1.527-8.307 1.526 6.891 1.528 11.859 1.527-15.253 1.528 13.872 1.529-21.837 1.529-4.21 1.531 5.2 1.531 29.469 1.529-2.762 1.529-23.481 1.528 10.956 1.529 7.126 1.527-22.634 1.529 29.381 1.53-21.85 1.53-11.068 1.531 8.045 1.53-1.587 1.53 27.9 1.529-16.629 1.529 16.486 1.53-33.971 1.53 30.119 1.53-9.544 1.531-2.494 1.531 2.38 1.53 13.256 1.53-5.937 1.531-13.127 1.531-10.613 1.531-5.009 1.525 36.426 1.528-6.91 1.529-5.513 1.532 8.835 1.53-30.15 1.528 22.597 1.527-10.969 1.528 21.71 1.528-39.397 1.531 13.427 1.532-13.593 1.531 37.434 1.53-20.032 1.529 12.307 1.533-5.176 1.533 1.153 1.531-2.475 1.532 10.168 1.533-20.205 1.533-.279 1.534-8.412 1.533 11.123 1.534-8.692 1.53 13.003 1.531 11.853 1.535-10.136 1.532 10.667 1.535-8.883 1.536 9.215 1.536-7.498 1.537-5.953-1.136z"/><g fill="#FFF"><path d="M184.817 141.195h12.003v12.707h13.119v-37.975H196.82v12.543h-12.003v-12.543h-13.119v37.975h13.119z"/><path d="M227.193 153.902h13.12v-25.359h11.545v-12.616h-36.211v12.616h11.546z"/><path d="M270.438 135.088l9.04 13.512h.219l9.021-13.512v18.814H301.8v-37.975h-13.686l-8.417 13.365-8.407-13.365h-13.686v37.975h12.834z"/><path d="M339.887 141.359h-18.453v-25.432h-13.12v37.975h31.573z"/><path d="M152.778 170.577l18.773 203.57 84.24 22.616 84.296-22.599 18.791-203.588h-206.1zm165.389 66.572H219.39l2.36 25.562h94.075l-7.072 76.678-52.925 14.188h-.037l-52.888-14.188-3.687-40.097h25.918l1.903 20.789 28.754 7.533.037-.019 28.792-7.515 3-32.381h-89.483l-6.953-75.509H320.49l-2.323 24.959z"/></g></g><metadata><rdf:RDF xmlns:rdf="http://www.w3.org/1999/02/22-rdf-syntax-ns#" xmlns:rdfs="http://www.w3.org/2000/01/rdf-schema#" xmlns:dc="http://purl.org/dc/elements/1.1/"><rdf:Description about="https://iconscout.com/legal#licenses" dc:title="social,media,html" dc:description="social,media,html" dc:publisher="Iconscout" dc:date="2018-06-25" dc:format="image/svg+xml" dc:language="en"><dc:creator><rdf:Bag><rdf:li>Ibrandify Icons</rdf:li></rdf:Bag></dc:creator></rdf:Description></rdf:RDF></metadata></svg>